<svg xmlns="http://www.w3.org/2000/svg" viewBox="0 0 1600 900" role="img" aria-label="Cloud Infrastructure">
<defs>
<linearGradient id="bg" x1="0" y1="0" x2="1" y2="1"><stop offset="0" stop-color="#061e37"/><stop offset=".58" stop-color="#0b3763"/><stop offset="1" stop-color="#0a86b6"/></linearGradient>
<linearGradient id="glass" x1="0" y1="0" x2="1" y2="1"><stop offset="0" stop-color="#fff" stop-opacity=".18"/><stop offset="1" stop-color="#fff" stop-opacity=".04"/></linearGradient>
<filter id="shadow"><feDropShadow dx="0" dy="18" stdDeviation="22" flood-color="#00152b" flood-opacity=".28"/></filter>
</defs>
<rect width="1600" height="900" rx="36" fill="url(#bg)"/>
<circle cx="1350" cy="90" r="300" fill="#08a5df" opacity=".12"/><circle cx="150" cy="760" r="260" fill="#fff" opacity=".05"/>

<g filter="url(#shadow)"><path d="M500 470c-55-120 75-230 180-155 45-110 235-80 245 45 125-10 180 155 60 205H560c-85 0-110-55-60-95z" fill="url(#glass)" stroke="#9ce7f6" stroke-width="4"/>
<circle cx="650" cy="385" r="24" fill="#08a5df"/><circle cx="730" cy="340" r="24" fill="#08a5df"/><circle cx="810" cy="390" r="24" fill="#08a5df"/><path d="M650 385l80-45 80 50" stroke="#fff" stroke-width="7" fill="none"/></g>
<g filter="url(#shadow)"><rect x="1090" y="210" width="190" height="430" rx="16" fill="#07192e" stroke="#5eaed2" stroke-opacity=".45"/><rect x="1108" y="238" width="154" height="46" rx="8" fill="#102f4e" stroke="#2e7192" stroke-opacity=".6"/><circle cx="1124" cy="261" r="4" fill="#08a5df"/><circle cx="1146" cy="261" r="4" fill="#08a5df"/><circle cx="1168" cy="261" r="4" fill="#08a5df"/><circle cx="1190" cy="261" r="4" fill="#08a5df"/><circle cx="1212" cy="261" r="4" fill="#08a5df"/><rect x="1214" y="252" width="38" height="10" rx="5" fill="#8fd9ef" opacity=".8"/><rect x="1108" y="305" width="154" height="46" rx="8" fill="#102f4e" stroke="#2e7192" stroke-opacity=".6"/><circle cx="1124" cy="328" r="4" fill="#08a5df"/><circle cx="1146" cy="328" r="4" fill="#08a5df"/><circle cx="1168" cy="328" r="4" fill="#08a5df"/><circle cx="1190" cy="328" r="4" fill="#08a5df"/><circle cx="1212" cy="328" r="4" fill="#08a5df"/><rect x="1214" y="319" width="38" height="10" rx="5" fill="#8fd9ef" opacity=".8"/><rect x="1108" y="372" width="154" height="46" rx="8" fill="#102f4e" stroke="#2e7192" stroke-opacity=".6"/><circle cx="1124" cy="395" r="4" fill="#08a5df"/><circle cx="1146" cy="395" r="4" fill="#08a5df"/><circle cx="1168" cy="395" r="4" fill="#08a5df"/><circle cx="1190" cy="395" r="4" fill="#08a5df"/><circle cx="1212" cy="395" r="4" fill="#08a5df"/><rect x="1214" y="386" width="38" height="10" rx="5" fill="#8fd9ef" opacity=".8"/><rect x="1108" y="439" width="154" height="46" rx="8" fill="#102f4e" stroke="#2e7192" stroke-opacity=".6"/><circle cx="1124" cy="462" r="4" fill="#08a5df"/><circle cx="1146" cy="462" r="4" fill="#08a5df"/><circle cx="1168" cy="462" r="4" fill="#08a5df"/><circle cx="1190" cy="462" r="4" fill="#08a5df"/><circle cx="1212" cy="462" r="4" fill="#08a5df"/><rect x="1214" y="453" width="38" height="10" rx="5" fill="#8fd9ef" opacity=".8"/><rect x="1108" y="506" width="154" height="46" rx="8" fill="#102f4e" stroke="#2e7192" stroke-opacity=".6"/><circle cx="1124" cy="529" r="4" fill="#08a5df"/><circle cx="1146" cy="529" r="4" fill="#08a5df"/><circle cx="1168" cy="529" r="4" fill="#08a5df"/><circle cx="1190" cy="529" r="4" fill="#08a5df"/><circle cx="1212" cy="529" r="4" fill="#08a5df"/><rect x="1214" y="520" width="38" height="10" rx="5" fill="#8fd9ef" opacity=".8"/><rect x="1108" y="573" width="154" height="46" rx="8" fill="#102f4e" stroke="#2e7192" stroke-opacity=".6"/><circle cx="1124" cy="596" r="4" fill="#08a5df"/><circle cx="1146" cy="596" r="4" fill="#08a5df"/><circle cx="1168" cy="596" r="4" fill="#08a5df"/><circle cx="1190" cy="596" r="4" fill="#08a5df"/><circle cx="1212" cy="596" r="4" fill="#08a5df"/><rect x="1214" y="587" width="38" height="10" rx="5" fill="#8fd9ef" opacity=".8"/><rect x="1108" y="640" width="154" height="46" rx="8" fill="#102f4e" stroke="#2e7192" stroke-opacity=".6"/><circle cx="1124" cy="663" r="4" fill="#08a5df"/><circle cx="1146" cy="663" r="4" fill="#08a5df"/><circle cx="1168" cy="663" r="4" fill="#08a5df"/><circle cx="1190" cy="663" r="4" fill="#08a5df"/><circle cx="1212" cy="663" r="4" fill="#08a5df"/><rect x="1214" y="654" width="38" height="10" rx="5" fill="#8fd9ef" opacity=".8"/><text x="1110" y="192" font-family="Arial" font-size="22" font-weight="700" fill="#cfeaf5">CLOUD</text></g><path d="M930 420h150" stroke="#7fe0f5" stroke-width="7" stroke-dasharray="12 12"/>
</svg>